{
	"asset":{
		"generator":"Khronos glTF Blender I/O v5.1.19",
		"version":"2.0"
	},
	"scene":0,
	"scenes":[
		{
			"name":"Scene",
			"nodes":[
				0,
				1,
				2,
				3,
				4,
				5,
				6,
				7,
				8,
				9,
				10,
				11,
				12,
				13,
				14,
				15,
				16,
				17,
				18,
				19,
				20,
				21,
				22,
				23,
				24,
				25,
				26,
				27,
				30,
				33,
				36,
				39,
				42,
				45,
				48,
				51,
				54,
				57,
				60,
				63,
				66,
				69,
				72,
				75,
				78,
				81,
				84,
				87,
				90,
				93,
				96,
				99,
				102,
				105,
				108,
				111,
				114,
				117,
				120,
				123,
				126,
				129
			]
		}
	],
	"nodes":[
		{
			"mesh":0,
			"name":"Landscape",
			"scale":[
				100,
				100,
				100
			]
		},
		{
			"mesh":1,
			"name":"Distinct Tree",
			"translation":[
				0,
				1,
				0
			]
		},
		{
			"mesh":2,
			"name":"Water",
			"scale":[
				30.242414474487305,
				30.242414474487305,
				30.242414474487305
			],
			"translation":[
				26.2393741607666,
				-0.47424206137657166,
				19.297958374023438
			]
		},
		{
			"mesh":3,
			"name":"Procedural Low Poly Rock",
			"rotation":[
				0.20959851145744324,
				-0.9777875542640686,
				0,
				6.806632768530108e-08
			],
			"translation":[
				-11.073649406433105,
				0.6677118539810181,
				32.224178314208984
			]
		},
		{
			"mesh":3,
			"name":"Procedural Low Poly Rock.001",
			"rotation":[
				-0.1818835288286209,
				0.8484957814216614,
				-0.10416295379400253,
				0.48592525720596313
			],
			"translation":[
				-7.232985496520996,
				0.6677118539810181,
				39.77370834350586
			]
		},
		{
			"mesh":3,
			"name":"Procedural Low Poly Rock.002",
			"rotation":[
				-0.12560297548770905,
				0.5859442353248596,
				-0.1677958071231842,
				0.7827757000923157
			],
			"scale":[
				1.160944938659668,
				1.160944938659668,
				1.1609448194503784
			],
			"translation":[
				-4.526092529296875,
				0.6677118539810181,
				24.490942001342773
			]
		},
		{
			"mesh":3,
			"name":"Procedural Low Poly Rock.003",
			"rotation":[
				-0.0006869211792945862,
				0.0032046406995505095,
				-0.2095973789691925,
				0.9777823090553284
			],
			"scale":[
				0.8305665850639343,
				0.8305665254592896,
				0.8305664658546448
			],
			"translation":[
				-4.765512943267822,
				0.6677118539810181,
				20.105621337890625
			]
		},
		{
			"mesh":3,
			"name":"Procedural Low Poly Rock.004",
			"rotation":[
				0.1064678207039833,
				-0.49667754769325256,
				-0.18054401874542236,
				0.8422468900680542
			],
			"scale":[
				0.8305666446685791,
				0.8305665850639343,
				0.8305664658546448
			],
			"translation":[
				-6.185479164123535,
				0.6677118539810181,
				22.190616607666016
			]
		},
		{
			"mesh":3,
			"name":"Procedural Low Poly Rock.005",
			"rotation":[
				0.1064678281545639,
				-0.49667757749557495,
				-0.18054401874542236,
				0.8422470688819885
			],
			"scale":[
				1.5730839967727661,
				1.5730839967727661,
				1.573083758354187
			],
			"translation":[
				5.5707197189331055,
				0.6677118539810181,
				2.4439620971679688
			]
		},
		{
			"mesh":3,
			"name":"Procedural Low Poly Rock.006",
			"rotation":[
				0.16097813844680786,
				-0.7509708404541016,
				-0.1342296004295349,
				0.6261878609657288
			],
			"scale":[
				1.573083758354187,
				1.5730839967727661,
				1.5730839967727661
			],
			"translation":[
				0.32532167434692383,
				0.6677118539810181,
				7.173843860626221
			]
		},
		{
			"mesh":3,
			"name":"Procedural Low Poly Rock.007",
			"rotation":[
				0.16097813844680786,
				-0.7509708404541016,
				-0.1342296004295349,
				0.6261878609657288
			],
			"scale":[
				1.573083758354187,
				1.5730839967727661,
				1.5730839967727661
			],
			"translation":[
				22.332975387573242,
				0.6677118539810181,
				-0.38843631744384766
			]
		},
		{
			"mesh":3,
			"name":"Procedural Low Poly Rock.008",
			"rotation":[
				0.20945580303668976,
				-0.9771217107772827,
				-0.007733708713203669,
				0.036078259348869324
			],
			"scale":[
				1.5730839967727661,
				1.5730839967727661,
				1.573083758354187
			],
			"translation":[
				43.5921516418457,
				0.6677118539810181,
				36.59286117553711
			]
		},
		{
			"mesh":3,
			"name":"Procedural Low Poly Rock.009",
			"rotation":[
				0.03731173276901245,
				-0.17406095564365387,
				-0.20625077188014984,
				0.9621700644493103
			],
			"scale":[
				1.5730839967727661,
				1.5730839967727661,
				1.5730839967727661
			],
			"translation":[
				13.609355926513672,
				0.6677118539810181,
				48.876163482666016
			]
		},
		{
			"mesh":3,
			"name":"Procedural Low Poly Rock.010",
			"rotation":[
				-0.2039877325296402,
				0.9516129493713379,
				-0.04817206785082817,
				0.22472497820854187
			],
			"scale":[
				1.8904459476470947,
				1.8904460668563843,
				1.8904460668563843
			],
			"translation":[
				53.25068664550781,
				0.6677118539810181,
				15.607379913330078
			]
		},
		{
			"mesh":3,
			"name":"Procedural Low Poly Rock.011",
			"rotation":[
				0.20869864523410797,
				-0.9735895395278931,
				-0.019401540979743004,
				0.09050927311182022
			],
			"scale":[
				1.3046776056289673,
				1.3046776056289673,
				1.3046776056289673
			],
			"translation":[
				58.72532272338867,
				0.6677118539810181,
				-0.2099437713623047
			]
		},
		{
			"mesh":3,
			"name":"Procedural Low Poly Rock.012",
			"rotation":[
				0.20869864523410797,
				-0.9735895395278931,
				-0.019401540979743004,
				0.09050927311182022
			],
			"scale":[
				1.3046776056289673,
				1.3046776056289673,
				1.3046776056289673
			],
			"translation":[
				71.86481475830078,
				0.6677118539810181,
				-3.295671224594116
			]
		},
		{
			"mesh":3,
			"name":"Procedural Low Poly Rock.013",
			"rotation":[
				0.14614392817020416,
				-0.681768536567688,
				-0.1502448320388794,
				0.7008995413780212
			],
			"scale":[
				1.3046776056289673,
				1.3046776056289673,
				1.3046774864196777
			],
			"translation":[
				72.02823638916016,
				0.6677118539810181,
				2.176480531692505
			]
		},
		{
			"mesh":3,
			"name":"Procedural Low Poly Rock.014",
			"rotation":[
				0.14614392817020416,
				-0.681768536567688,
				-0.1502448320388794,
				0.7008995413780212
			],
			"scale":[
				1.3046776056289673,
				1.3046776056289673,
				1.3046774864196777
			],
			"translation":[
				55.420623779296875,
				1.667711853981018,
				39.240234375
			]
		},
		{
			"mesh":3,
			"name":"Procedural Low Poly Rock.015",
			"rotation":[
				0.04163914546370506,
				-0.19424854218959808,
				-0.20542091131210327,
				0.9582984447479248
			],
			"scale":[
				1.3046776056289673,
				1.3046776056289673,
				1.3046774864196777
			],
			"translation":[
				54.48876953125,
				1.667711853981018,
				25.805133819580078
			]
		},
		{
			"mesh":3,
			"name":"Procedural Low Poly Rock.016",
			"rotation":[
				-0.20755450427532196,
				0.9682519435882568,
				-0.029200727120041847,
				0.1362226903438568
			],
			"scale":[
				1.3046776056289673,
				1.3046777248382568,
				1.3046777248382568
			],
			"translation":[
				31.001026153564453,
				1.667711853981018,
				50.6494140625
			]
		},
		{
			"mesh":3,
			"name":"Procedural Low Poly Rock.017",
			"rotation":[
				0.19621069729328156,
				-0.9298509955406189,
				-0.06479830294847488,
				0.3044334053993225
			],
			"scale":[
				1.3046776056289673,
				1.3046776056289673,
				1.3046776056289673
			],
			"translation":[
				6.094654083251953,
				1.6338075399398804,
				45.96527099609375
			]
		},
		{
			"mesh":3,
			"name":"Procedural Low Poly Rock.018",
			"rotation":[
				0.136201411485672,
				-0.6625242233276367,
				-0.15355826914310455,
				0.7203684449195862
			],
			"scale":[
				0.7703002095222473,
				0.7703000903129578,
				0.7702999114990234
			],
			"translation":[
				-2.0050125122070312,
				1.6306431293487549,
				45.56840133666992
			]
		},
		{
			"mesh":3,
			"name":"Procedural Low Poly Rock.019",
			"rotation":[
				0.1887436807155609,
				-0.9067495465278625,
				-0.080664724111557,
				0.3683398962020874
			],
			"scale":[
				1.2218108177185059,
				1.2218106985092163,
				1.2218105792999268
			],
			"translation":[
				-18.011445999145508,
				1.6306431293487549,
				48.71720886230469
			]
		},
		{
			"mesh":3,
			"name":"Procedural Low Poly Rock.020",
			"rotation":[
				0.13595427572727203,
				-0.6613647937774658,
				-0.15377715229988098,
				0.7214330434799194
			],
			"scale":[
				1.2218108177185059,
				1.2218106985092163,
				1.2218105792999268
			],
			"translation":[
				-19.58584976196289,
				1.6306431293487549,
				45.69960403442383
			]
		},
		{
			"mesh":3,
			"name":"Procedural Low Poly Rock.021",
			"rotation":[
				0.09569884836673737,
				-0.4718407392501831,
				-0.18158389627933502,
				0.8574586510658264
			],
			"scale":[
				1.7258925437927246,
				1.725892424583435,
				1.7258919477462769
			],
			"translation":[
				-22.603456497192383,
				1.6306431293487549,
				50.68521499633789
			]
		},
		{
			"mesh":3,
			"name":"Procedural Low Poly Rock.022",
			"rotation":[
				0.15490464866161346,
				-0.7500664591789246,
				-0.1346682459115982,
				0.6287044882774353
			],
			"scale":[
				1.7258925437927246,
				1.725892424583435,
				1.7258920669555664
			],
			"translation":[
				-19.323450088500977,
				1.6306431293487549,
				22.73955726623535
			]
		},
		{
			"mesh":3,
			"name":"Procedural Low Poly Rock.023",
			"rotation":[
				-0.17070579528808594,
				0.8040275573730469,
				-0.11397593468427658,
				0.5580400824546814
			],
			"scale":[
				1.7258925437927246,
				1.725892424583435,
				1.7258918285369873
			],
			"translation":[
				-26.801864624023438,
				1.6306431293487549,
				3.9779186248779297
			]
		},
		{
			"mesh":3,
			"name":"Procedural Low Poly Rock.024",
			"rotation":[
				-0.17070579528808594,
				0.8040275573730469,
				-0.11397593468427658,
				0.5580400824546814
			],
			"scale":[
				1.7258925437927246,
				1.725892424583435,
				1.7258918285369873
			],
			"translation":[
				-3.9730167388916016,
				1.6306431293487549,
				1.4851133823394775
			]
		},
		{
			"mesh":4,
			"name":"Crown",
			"translation":[
				-0.3356971740722656,
				9.525118827819824,
				-4.206485748291016
			]
		},
		{
			"mesh":5,
			"name":"Trunk"
		},
		{
			"children":[
				28,
				29
			],
			"name":"Tree_base",
			"rotation":[
				0,
				0.6325938105583191,
				0,
				0.7744837403297424
			],
			"scale":[
				1.3634698390960693,
				1.3634698390960693,
				1.3634698390960693
			],
			"translation":[
				-39.16503143310547,
				2.9802322387695312e-06,
				-2.4829940795898438
			]
		},
		{
			"mesh":4,
			"name":"Crown.001",
			"translation":[
				-0.3356933295726776,
				9.525117874145508,
				-4.206486701965332
			]
		},
		{
			"mesh":5,
			"name":"Trunk.001"
		},
		{
			"children":[
				31,
				32
			],
			"name":"Tree_base.001",
			"rotation":[
				0,
				-1,
				0,
				7.549790126404332e-08
			],
			"scale":[
				1.6289894580841064,
				1.6289894580841064,
				1.6289894580841064
			],
			"translation":[
				-75.70462799072266,
				19.22972297668457,
				-6.382476806640625
			]
		},
		{
			"mesh":4,
			"name":"Crown.002",
			"translation":[
				-0.33569321036338806,
				9.525118827819824,
				-4.206484794616699
			]
		},
		{
			"mesh":5,
			"name":"Trunk.002",
			"translation":[
				3.1592408049618825e-06,
				0,
				4.685148269345518e-06
			]
		},
		{
			"children":[
				34,
				35
			],
			"name":"Tree_base.002",
			"rotation":[
				0,
				-0.7071066498756409,
				0,
				0.70710688829422
			],
			"scale":[
				1.641473650932312,
				1.641473650932312,
				1.641473650932312
			],
			"translation":[
				-85.92506408691406,
				22.452850341796875,
				39.498016357421875
			]
		},
		{
			"mesh":4,
			"name":"Crown.003",
			"translation":[
				-0.33569860458374023,
				9.525121688842773,
				-4.206485748291016
			]
		},
		{
			"mesh":5,
			"name":"Trunk.003"
		},
		{
			"children":[
				37,
				38
			],
			"name":"Tree_base.003",
			"rotation":[
				0,
				-0.16504749655723572,
				0,
				0.9862856268882751
			],
			"scale":[
				1.6414737701416016,
				1.641473650932312,
				1.6414737701416016
			],
			"translation":[
				-82.4930191040039,
				19.936288833618164,
				23.623600006103516
			]
		},
		{
			"mesh":4,
			"name":"Crown.004",
			"translation":[
				-0.3356947898864746,
				9.52511978149414,
				-4.206486701965332
			]
		},
		{
			"mesh":5,
			"name":"Trunk.004"
		},
		{
			"children":[
				40,
				41
			],
			"name":"Tree_base.004",
			"rotation":[
				0,
				0.978147566318512,
				0,
				0.20791174471378326
			],
			"scale":[
				1.641473650932312,
				1.641473650932312,
				1.641473650932312
			],
			"translation":[
				-75.43232727050781,
				14.12869930267334,
				10.208399772644043
			]
		},
		{
			"mesh":4,
			"name":"Crown.005",
			"translation":[
				-0.3356966972351074,
				9.525117874145508,
				-4.206486701965332
			]
		},
		{
			"mesh":5,
			"name":"Trunk.005"
		},
		{
			"children":[
				43,
				44
			],
			"name":"Tree_base.005",
			"rotation":[
				0,
				0.978147566318512,
				0,
				0.20791174471378326
			],
			"scale":[
				1.9927898645401,
				1.9927898645401,
				1.9927898645401
			],
			"translation":[
				-62.651222229003906,
				4.6731414794921875,
				29.538402557373047
			]
		},
		{
			"mesh":4,
			"name":"Crown.006",
			"translation":[
				-0.33569812774658203,
				9.525118827819824,
				-4.206486701965332
			]
		},
		{
			"mesh":5,
			"name":"Trunk.006"
		},
		{
			"children":[
				46,
				47
			],
			"name":"Tree_base.006",
			"rotation":[
				0,
				0.5446388125419617,
				0,
				0.8386707305908203
			],
			"scale":[
				1.9927898645401,
				1.9927898645401,
				1.9927898645401
			],
			"translation":[
				-62.651222229003906,
				13.516907691955566,
				-75.17222595214844
			]
		},
		{
			"mesh":4,
			"name":"Crown.007",
			"translation":[
				-0.3356962203979492,
				9.52511978149414,
				-4.206484794616699
			]
		},
		{
			"mesh":5,
			"name":"Trunk.007"
		},
		{
			"children":[
				49,
				50
			],
			"name":"Tree_base.007",
			"rotation":[
				0,
				-0.7604060769081116,
				0,
				0.6494479179382324
			],
			"scale":[
				1.9927898645401,
				1.9927898645401,
				1.9927898645401
			],
			"translation":[
				-76.83071899414062,
				20.72066879272461,
				-60.55267333984375
			]
		},
		{
			"mesh":4,
			"name":"Crown.008",
			"translation":[
				-0.33569812774658203,
				9.525116920471191,
				-4.206488609313965
			]
		},
		{
			"mesh":5,
			"name":"Trunk.008"
		},
		{
			"children":[
				52,
				53
			],
			"name":"Tree_base.008",
			"rotation":[
				0,
				-0.8723174929618835,
				0,
				0.48894011974334717
			],
			"scale":[
				1.9927898645401,
				1.9927898645401,
				1.9927898645401
			],
			"translation":[
				-76.83071899414062,
				20.72066879272461,
				-29.142486572265625
			]
		},
		{
			"mesh":4,
			"name":"Crown.009",
			"translation":[
				-0.335695743560791,
				9.52511978149414,
				-4.206484794616699
			]
		},
		{
			"mesh":5,
			"name":"Trunk.009"
		},
		{
			"children":[
				55,
				56
			],
			"name":"Tree_base.009",
			"rotation":[
				0,
				0.7511147856712341,
				0,
				0.6601717472076416
			],
			"scale":[
				1.2587863206863403,
				1.2587862014770508,
				1.2587863206863403
			],
			"translation":[
				-36.255409240722656,
				3.896533489227295,
				-42.708534240722656
			]
		},
		{
			"mesh":4,
			"name":"Crown.010",
			"translation":[
				-0.33569520711898804,
				9.525117874145508,
				-4.206488132476807
			]
		},
		{
			"mesh":5,
			"name":"Trunk.010"
		},
		{
			"children":[
				58,
				59
			],
			"name":"Tree_base.010",
			"rotation":[
				0,
				-0.7071066498756409,
				0,
				0.70710688829422
			],
			"scale":[
				1.641473650932312,
				1.641473650932312,
				1.641473650932312
			],
			"translation":[
				-54.587677001953125,
				16.210609436035156,
				92.2623291015625
			]
		},
		{
			"mesh":4,
			"name":"Crown.011",
			"translation":[
				-0.3356971740722656,
				9.525118827819824,
				-4.206483840942383
			]
		},
		{
			"mesh":5,
			"name":"Trunk.011",
			"translation":[
				0,
				0,
				3.814697265625e-06
			]
		},
		{
			"children":[
				61,
				62
			],
			"name":"Tree_base.011",
			"rotation":[
				0,
				-0.14770258963108063,
				0,
				0.9890319108963013
			],
			"scale":[
				1.2416443824768066,
				1.241644263267517,
				1.2416443824768066
			],
			"translation":[
				-85.55133056640625,
				18.773582458496094,
				77.62218475341797
			]
		},
		{
			"mesh":4,
			"name":"Crown.012",
			"translation":[
				-0.33570098876953125,
				9.525118827819824,
				-4.206491470336914
			]
		},
		{
			"mesh":5,
			"name":"Trunk.012",
			"translation":[
				-9.5367431640625e-06,
				0,
				-3.814697265625e-06
			]
		},
		{
			"children":[
				64,
				65
			],
			"name":"Tree_base.012",
			"rotation":[
				0,
				0.572139322757721,
				0,
				0.8201565742492676
			],
			"scale":[
				1.241644263267517,
				1.241644263267517,
				1.241644263267517
			],
			"translation":[
				-72.18574523925781,
				17.123151779174805,
				95.3518295288086
			]
		},
		{
			"mesh":4,
			"name":"Crown.013",
			"translation":[
				-0.3356966972351074,
				9.525117874145508,
				-4.206487655639648
			]
		},
		{
			"mesh":5,
			"name":"Trunk.013",
			"translation":[
				-3.337860107421875e-06,
				0,
				0
			]
		},
		{
			"children":[
				67,
				68
			],
			"name":"Tree_base.013",
			"rotation":[
				0,
				-0.7342633605003357,
				0,
				0.6788647174835205
			],
			"scale":[
				1.241644263267517,
				1.241644263267517,
				1.241644263267517
			],
			"translation":[
				-75.35597229003906,
				18.010766983032227,
				85.19674682617188
			]
		},
		{
			"mesh":4,
			"name":"Crown.014",
			"translation":[
				-0.33569836616516113,
				9.525117874145508,
				-4.20648717880249
			]
		},
		{
			"mesh":5,
			"name":"Trunk.014",
			"translation":[
				-7.152557373046875e-06,
				0,
				0
			]
		},
		{
			"children":[
				70,
				71
			],
			"name":"Tree_base.014",
			"rotation":[
				0,
				0.572139322757721,
				0,
				0.8201565742492676
			],
			"scale":[
				1.241644263267517,
				1.241644263267517,
				1.241644263267517
			],
			"translation":[
				-4.066287994384766,
				15.366398811340332,
				98.91849517822266
			]
		},
		{
			"mesh":4,
			"name":"Crown.015",
			"translation":[
				-0.33569902181625366,
				9.525118827819824,
				-4.206486701965332
			]
		},
		{
			"mesh":5,
			"name":"Trunk.015",
			"translation":[
				-3.4868717193603516e-06,
				0,
				0
			]
		},
		{
			"children":[
				73,
				74
			],
			"name":"Tree_base.015",
			"rotation":[
				0,
				-0.7263695001602173,
				0,
				0.6873044371604919
			],
			"scale":[
				1.241644263267517,
				1.241644263267517,
				1.241644263267517
			],
			"translation":[
				-6.8539018630981445,
				6.311484336853027,
				84.021240234375
			]
		},
		{
			"mesh":4,
			"name":"Crown.016",
			"translation":[
				-0.3356952667236328,
				9.525117874145508,
				-4.206498622894287
			]
		},
		{
			"mesh":5,
			"name":"Trunk.016",
			"translation":[
				0,
				0,
				-7.152557373046875e-06
			]
		},
		{
			"children":[
				76,
				77
			],
			"name":"Tree_base.016",
			"rotation":[
				0,
				-0.9957614541053772,
				0,
				0.09197375178337097
			],
			"scale":[
				1.241644263267517,
				1.241644263267517,
				1.241644263267517
			],
			"translation":[
				-30.409440994262695,
				5.27689790725708,
				84.60558319091797
			]
		},
		{
			"mesh":4,
			"name":"Crown.017",
			"translation":[
				-0.33569788932800293,
				9.525117874145508,
				-4.206485748291016
			]
		},
		{
			"mesh":5,
			"name":"Trunk.017"
		},
		{
			"children":[
				79,
				80
			],
			"name":"Tree_base.017",
			"rotation":[
				0,
				0.7740793228149414,
				0,
				0.6330885887145996
			],
			"scale":[
				1.7855793237686157,
				1.7855790853500366,
				1.7855793237686157
			],
			"translation":[
				-19.429176330566406,
				7.802116870880127,
				92.84518432617188
			]
		},
		{
			"mesh":4,
			"name":"Crown.018",
			"translation":[
				-0.3356953263282776,
				9.525117874145508,
				-4.206486701965332
			]
		},
		{
			"mesh":5,
			"name":"Trunk.018"
		},
		{
			"children":[
				82,
				83
			],
			"name":"Tree_base.018",
			"rotation":[
				0,
				0.00045815311023034155,
				0,
				1
			],
			"scale":[
				1.3993443250656128,
				1.3993439674377441,
				1.3993443250656128
			],
			"translation":[
				37.748844146728516,
				0.018180370330810547,
				43.36817932128906
			]
		},
		{
			"mesh":4,
			"name":"Crown.019",
			"translation":[
				-0.33570098876953125,
				9.52511978149414,
				-4.20648717880249
			]
		},
		{
			"mesh":5,
			"name":"Trunk.019",
			"translation":[
				-6.198883056640625e-06,
				0,
				0
			]
		},
		{
			"children":[
				85,
				86
			],
			"name":"Tree_base.019",
			"rotation":[
				0,
				-0.516926109790802,
				0,
				0.8560300469398499
			],
			"scale":[
				2.253404378890991,
				2.253404140472412,
				2.253404378890991
			],
			"translation":[
				26.173290252685547,
				8.280921936035156,
				82.0677490234375
			]
		},
		{
			"mesh":4,
			"name":"Crown.020",
			"translation":[
				-0.335695743560791,
				9.525117874145508,
				-4.20648717880249
			]
		},
		{
			"mesh":5,
			"name":"Trunk.020"
		},
		{
			"children":[
				88,
				89
			],
			"name":"Tree_base.020",
			"rotation":[
				0,
				-0.9836980104446411,
				0,
				0.17982825636863708
			],
			"scale":[
				2.253404378890991,
				2.253404140472412,
				2.253404378890991
			],
			"translation":[
				14.716135025024414,
				17.016382217407227,
				98.39369201660156
			]
		},
		{
			"mesh":4,
			"name":"Crown.021",
			"translation":[
				-0.3356962203979492,
				9.525115966796875,
				-4.206488609313965
			]
		},
		{
			"mesh":5,
			"name":"Trunk.021"
		},
		{
			"children":[
				91,
				92
			],
			"name":"Tree_base.021",
			"rotation":[
				0,
				0.9777989983558655,
				0,
				0.2095450460910797
			],
			"scale":[
				2.253404378890991,
				2.253404140472412,
				2.253404378890991
			],
			"translation":[
				80.20221710205078,
				26.825580596923828,
				77.35202026367188
			]
		},
		{
			"mesh":4,
			"name":"Crown.022",
			"translation":[
				-0.3356928825378418,
				9.525117874145508,
				-4.206488132476807
			]
		},
		{
			"mesh":5,
			"name":"Trunk.022"
		},
		{
			"children":[
				94,
				95
			],
			"name":"Tree_base.022",
			"rotation":[
				0,
				0.9777989983558655,
				0,
				0.2095450460910797
			],
			"scale":[
				2.253404378890991,
				2.253404140472412,
				2.253404378890991
			],
			"translation":[
				82.1512680053711,
				6.051607131958008,
				21.837203979492188
			]
		},
		{
			"mesh":4,
			"name":"Crown.023",
			"translation":[
				-0.3356966972351074,
				9.525118827819824,
				-4.206487655639648
			]
		},
		{
			"mesh":5,
			"name":"Trunk.023"
		},
		{
			"children":[
				97,
				98
			],
			"name":"Tree_base.023",
			"rotation":[
				0,
				0.6129316687583923,
				0,
				0.7901359796524048
			],
			"scale":[
				2.253404378890991,
				2.253404140472412,
				2.253404378890991
			],
			"translation":[
				87.80789184570312,
				4.184947967529297,
				-10.804027557373047
			]
		},
		{
			"mesh":4,
			"name":"Crown.024",
			"translation":[
				-0.335695743560791,
				9.525117874145508,
				-4.206486701965332
			]
		},
		{
			"mesh":5,
			"name":"Trunk.024"
		},
		{
			"children":[
				100,
				101
			],
			"name":"Tree_base.024",
			"rotation":[
				0,
				0.6287775039672852,
				0,
				0.7775852680206299
			],
			"scale":[
				2.253404378890991,
				2.253404140472412,
				2.253404378890991
			],
			"translation":[
				92.0768051147461,
				5.853022575378418,
				-48.09934616088867
			]
		},
		{
			"mesh":4,
			"name":"Crown.025",
			"translation":[
				-0.3356971740722656,
				9.52511978149414,
				-4.206486701965332
			]
		},
		{
			"mesh":5,
			"name":"Trunk.025"
		},
		{
			"children":[
				103,
				104
			],
			"name":"Tree_base.025",
			"rotation":[
				0,
				0.9921101927757263,
				0,
				0.12536974251270294
			],
			"scale":[
				2.253404378890991,
				2.253404140472412,
				2.253404378890991
			],
			"translation":[
				94.72883605957031,
				5.1575822830200195,
				-86.41261291503906
			]
		},
		{
			"mesh":4,
			"name":"Crown.026",
			"translation":[
				-0.33569812774658203,
				9.52511978149414,
				-4.206489562988281
			]
		},
		{
			"mesh":5,
			"name":"Trunk.026",
			"translation":[
				0,
				0,
				-2.86102294921875e-06
			]
		},
		{
			"children":[
				106,
				107
			],
			"name":"Tree_base.026",
			"rotation":[
				0,
				0.8296423554420471,
				0,
				0.5582952499389648
			],
			"scale":[
				2.253404378890991,
				2.253404140472412,
				2.253404378890991
			],
			"translation":[
				46.113800048828125,
				4.964241981506348,
				-87.7608871459961
			]
		},
		{
			"mesh":4,
			"name":"Crown.027",
			"translation":[
				-0.335693359375,
				9.525117874145508,
				-4.206488609313965
			]
		},
		{
			"mesh":5,
			"name":"Trunk.027",
			"translation":[
				2.384185791015625e-06,
				0,
				0
			]
		},
		{
			"children":[
				109,
				110
			],
			"name":"Tree_base.027",
			"rotation":[
				0,
				-0.09026496112346649,
				0,
				0.995917797088623
			],
			"scale":[
				2.253404378890991,
				2.253404140472412,
				2.253404378890991
			],
			"translation":[
				65.20378112792969,
				0.39531612396240234,
				-63.49474334716797
			]
		},
		{
			"mesh":4,
			"name":"Crown.028",
			"translation":[
				-0.3356971740722656,
				9.525117874145508,
				-4.206488132476807
			]
		},
		{
			"mesh":5,
			"name":"Trunk.028"
		},
		{
			"children":[
				112,
				113
			],
			"name":"Tree_base.028",
			"rotation":[
				0,
				-0.48616087436676025,
				0,
				0.8738693594932556
			],
			"scale":[
				2.253404378890991,
				2.253404140472412,
				2.253404378890991
			],
			"translation":[
				4.088730812072754,
				8.30639362335205,
				-82.91915893554688
			]
		},
		{
			"mesh":4,
			"name":"Crown.029",
			"translation":[
				-0.3356943130493164,
				9.525117874145508,
				-4.206494331359863
			]
		},
		{
			"mesh":5,
			"name":"Trunk.029",
			"translation":[
				0,
				0,
				-2.384185791015625e-06
			]
		},
		{
			"children":[
				115,
				116
			],
			"name":"Tree_base.029",
			"rotation":[
				0,
				-0.958869993686676,
				0,
				0.2838456630706787
			],
			"scale":[
				1.8194973468780518,
				1.8194972276687622,
				1.8194973468780518
			],
			"translation":[
				23.687320709228516,
				4.404143333435059,
				-86.65272521972656
			]
		},
		{
			"mesh":4,
			"name":"Crown.030",
			"translation":[
				-0.33569812774658203,
				9.525121688842773,
				-4.206486701965332
			]
		},
		{
			"mesh":5,
			"name":"Trunk.030",
			"translation":[
				-3.337860107421875e-06,
				0,
				0
			]
		},
		{
			"children":[
				118,
				119
			],
			"name":"Tree_base.030",
			"rotation":[
				0,
				-0.8681894540786743,
				0,
				0.49623292684555054
			],
			"scale":[
				2.1434013843536377,
				2.1434013843536377,
				2.1434013843536377
			],
			"translation":[
				-17.53663444519043,
				14.071950912475586,
				-87.07846069335938
			]
		},
		{
			"mesh":4,
			"name":"Crown.031",
			"translation":[
				-0.3356962203979492,
				9.52511978149414,
				-4.206487655639648
			]
		},
		{
			"mesh":5,
			"name":"Trunk.031"
		},
		{
			"children":[
				121,
				122
			],
			"name":"Tree_base.031",
			"rotation":[
				0,
				-0.8681894540786743,
				0,
				0.49623292684555054
			],
			"scale":[
				2.1434013843536377,
				2.1434013843536377,
				2.1434013843536377
			],
			"translation":[
				-35.26887893676758,
				12.602702140808105,
				-96.76776123046875
			]
		},
		{
			"mesh":4,
			"name":"Crown.032",
			"translation":[
				-0.3356966972351074,
				9.525117874145508,
				-4.206485748291016
			]
		},
		{
			"mesh":5,
			"name":"Trunk.032"
		},
		{
			"children":[
				124,
				125
			],
			"name":"Tree_base.032",
			"rotation":[
				0,
				-0.581257164478302,
				0,
				0.8137199282646179
			],
			"scale":[
				2.1434013843536377,
				2.1434013843536377,
				2.1434013843536377
			],
			"translation":[
				-56.46063232421875,
				8.935182571411133,
				-91.19621276855469
			]
		},
		{
			"mesh":4,
			"name":"Crown.033",
			"translation":[
				-0.335695743560791,
				9.525117874145508,
				-4.206485748291016
			]
		},
		{
			"mesh":5,
			"name":"Trunk.033"
		},
		{
			"children":[
				127,
				128
			],
			"name":"Tree_base.033",
			"rotation":[
				0,
				0.9479442238807678,
				0,
				0.31843674182891846
			],
			"scale":[
				1.7195576429367065,
				1.7195576429367065,
				1.7195576429367065
			],
			"translation":[
				43.37616729736328,
				0.10623443126678467,
				-56.781272888183594
			]
		}
	],
	"materials":[
		{
			"doubleSided":true,
			"name":"Rock",
			"pbrMetallicRoughness":{
				"baseColorFactor":[
					0.15000000596046448,
					0.13770000636577606,
					0.13500000536441803,
					1
				],
				"metallicFactor":0,
				"roughnessFactor":0.6000000238418579
			}
		},
		{
			"doubleSided":true,
			"name":"Crown",
			"pbrMetallicRoughness":{
				"baseColorFactor":[
					0.024059835821390152,
					0.0522179938852787,
					0.005230959504842758,
					1
				],
				"metallicFactor":0,
				"roughnessFactor":0.5
			}
		},
		{
			"doubleSided":true,
			"name":"Trunk",
			"pbrMetallicRoughness":{
				"baseColorFactor":[
					0.06680663675069809,
					0.02512774057686329,
					0.0073633380234241486,
					1
				],
				"metallicFactor":0,
				"roughnessFactor":0.5
			}
		}
	],
	"meshes":[
		{
			"name":"Plane",
			"primitives":[
				{
					"attributes":{
						"POSITION":0,
						"NORMAL":1,
						"TEXCOORD_0":2
					},
					"indices":3
				}
			]
		},
		{
			"name":"Cylinder",
			"primitives":[
				{
					"attributes":{
						"POSITION":4,
						"NORMAL":5,
						"TEXCOORD_0":6
					},
					"indices":7
				}
			]
		},
		{
			"name":"Plane.001",
			"primitives":[
				{
					"attributes":{
						"POSITION":8,
						"NORMAL":9,
						"TEXCOORD_0":10
					},
					"indices":11
				}
			]
		},
		{
			"name":"Cube",
			"primitives":[
				{
					"attributes":{
						"POSITION":12,
						"NORMAL":13,
						"TEXCOORD_0":14
					},
					"indices":15,
					"material":0
				}
			]
		},
		{
			"name":"Crown",
			"primitives":[
				{
					"attributes":{
						"POSITION":16,
						"NORMAL":17,
						"TEXCOORD_0":18
					},
					"indices":19,
					"material":1
				}
			]
		},
		{
			"name":"Trunk",
			"primitives":[
				{
					"attributes":{
						"POSITION":20,
						"NORMAL":21
					},
					"indices":22,
					"material":2
				}
			]
		}
	],
	"accessors":[
		{
			"bufferView":0,
			"componentType":5126,
			"count":7704,
			"max":[
				1.2262524366378784,
				0.38807323575019836,
				1.158493161201477
			],
			"min":[
				-1.0372920036315918,
				-0.07897517830133438,
				-1.0087276697158813
			],
			"type":"VEC3"
		},
		{
			"bufferView":1,
			"componentType":5126,
			"count":7704,
			"type":"VEC3"
		},
		{
			"bufferView":2,
			"componentType":5126,
			"count":7704,
			"type":"VEC2"
		},
		{
			"bufferView":3,
			"componentType":5123,
			"count":11616,
			"type":"SCALAR"
		},
		{
			"bufferView":4,
			"componentType":5126,
			"count":12045,
			"max":[
				7.998956203460693,
				21.561050415039062,
				9.993548393249512
			],
			"min":[
				-10.96738052368164,
				-1,
				-13.264572143554688
			],
			"type":"VEC3"
		},
		{
			"bufferView":5,
			"componentType":5126,
			"count":12045,
			"type":"VEC3"
		},
		{
			"bufferView":6,
			"componentType":5126,
			"count":12045,
			"type":"VEC2"
		},
		{
			"bufferView":7,
			"componentType":5123,
			"count":27156,
			"type":"SCALAR"
		},
		{
			"bufferView":8,
			"componentType":5126,
			"count":4,
			"max":[
				1,
				0,
				1
			],
			"min":[
				-1,
				0,
				-1
			],
			"type":"VEC3"
		},
		{
			"bufferView":9,
			"componentType":5126,
			"count":4,
			"type":"VEC3"
		},
		{
			"bufferView":10,
			"componentType":5126,
			"count":4,
			"type":"VEC2"
		},
		{
			"bufferView":11,
			"componentType":5123,
			"count":6,
			"type":"SCALAR"
		},
		{
			"bufferView":12,
			"componentType":5126,
			"count":24,
			"max":[
				1,
				1,
				1
			],
			"min":[
				-1,
				-1,
				-1
			],
			"type":"VEC3"
		},
		{
			"bufferView":13,
			"componentType":5126,
			"count":24,
			"type":"VEC3"
		},
		{
			"bufferView":14,
			"componentType":5126,
			"count":24,
			"type":"VEC2"
		},
		{
			"bufferView":15,
			"componentType":5123,
			"count":36,
			"type":"SCALAR"
		},
		{
			"bufferView":16,
			"componentType":5126,
			"count":1518,
			"max":[
				4.279464244842529,
				2.5903124809265137,
				8.81679630279541
			],
			"min":[
				-3.857069969177246,
				-5.493343353271484,
				-2.130251884460449
			],
			"type":"VEC3"
		},
		{
			"bufferView":17,
			"componentType":5126,
			"count":1518,
			"type":"VEC3"
		},
		{
			"bufferView":18,
			"componentType":5126,
			"count":1518,
			"type":"VEC2"
		},
		{
			"bufferView":19,
			"componentType":5123,
			"count":1518,
			"type":"SCALAR"
		},
		{
			"bufferView":20,
			"componentType":5126,
			"count":626,
			"max":[
				1.9795349836349487,
				9.480905532836914,
				2.1520187854766846
			],
			"min":[
				-2.87229323387146,
				0,
				-4.468116760253906
			],
			"type":"VEC3"
		},
		{
			"bufferView":21,
			"componentType":5126,
			"count":626,
			"type":"VEC3"
		},
		{
			"bufferView":22,
			"componentType":5123,
			"count":954,
			"type":"SCALAR"
		}
	],
	"bufferViews":[
		{
			"buffer":0,
			"byteLength":92448,
			"byteOffset":0,
			"target":34962
		},
		{
			"buffer":0,
			"byteLength":92448,
			"byteOffset":92448,
			"target":34962
		},
		{
			"buffer":0,
			"byteLength":61632,
			"byteOffset":184896,
			"target":34962
		},
		{
			"buffer":0,
			"byteLength":23232,
			"byteOffset":246528,
			"target":34963
		},
		{
			"buffer":0,
			"byteLength":144540,
			"byteOffset":269760,
			"target":34962
		},
		{
			"buffer":0,
			"byteLength":144540,
			"byteOffset":414300,
			"target":34962
		},
		{
			"buffer":0,
			"byteLength":96360,
			"byteOffset":558840,
			"target":34962
		},
		{
			"buffer":0,
			"byteLength":54312,
			"byteOffset":655200,
			"target":34963
		},
		{
			"buffer":0,
			"byteLength":48,
			"byteOffset":709512,
			"target":34962
		},
		{
			"buffer":0,
			"byteLength":48,
			"byteOffset":709560,
			"target":34962
		},
		{
			"buffer":0,
			"byteLength":32,
			"byteOffset":709608,
			"target":34962
		},
		{
			"buffer":0,
			"byteLength":12,
			"byteOffset":709640,
			"target":34963
		},
		{
			"buffer":0,
			"byteLength":288,
			"byteOffset":709652,
			"target":34962
		},
		{
			"buffer":0,
			"byteLength":288,
			"byteOffset":709940,
			"target":34962
		},
		{
			"buffer":0,
			"byteLength":192,
			"byteOffset":710228,
			"target":34962
		},
		{
			"buffer":0,
			"byteLength":72,
			"byteOffset":710420,
			"target":34963
		},
		{
			"buffer":0,
			"byteLength":18216,
			"byteOffset":710492,
			"target":34962
		},
		{
			"buffer":0,
			"byteLength":18216,
			"byteOffset":728708,
			"target":34962
		},
		{
			"buffer":0,
			"byteLength":12144,
			"byteOffset":746924,
			"target":34962
		},
		{
			"buffer":0,
			"byteLength":3036,
			"byteOffset":759068,
			"target":34963
		},
		{
			"buffer":0,
			"byteLength":7512,
			"byteOffset":762104,
			"target":34962
		},
		{
			"buffer":0,
			"byteLength":7512,
			"byteOffset":769616,
			"target":34962
		},
		{
			"buffer":0,
			"byteLength":1908,
			"byteOffset":777128,
			"target":34963
		}
	],
	"buffers":[
		{
			"byteLength":779036,
			"uri":"forest.bin"
		}
	]
}
