{
"asset":{
"generator":"Khronos glTF Blender I/O v5.1.19",
"version":"2.0"
},
"scene":0,
"scenes":[
{
"name":"Scene",
"nodes":[
0,
1,
2,
3,
5
]
}
],
"nodes":[
{
"mesh":0,
"name":"Landscape",
"scale":[
100,
100,
100
]
},
{
"mesh":1,
"name":"Distinct Tree",
"translation":[
0,
1,
0
]
},
{
"mesh":2,
"name":"Water",
"scale":[
30.242414474487305,
30.242414474487305,
30.242414474487305
],
"translation":[
26.2393741607666,
-0.47424206137657166,
19.297958374023438
]
},
{
"mesh":3,
"name":"Procedural Low Poly Rock",
"rotation":[
0.20959851145744324,
-0.9777875542640686,
0,
6.806632768530108e-08
],
"translation":[
-11.073649406433105,
0.6677118539810181,
32.224178314208984
]
},
{
"mesh":4,
"name":"Crown",
"translation":[
-0.3356971740722656,
9.525118827819824,
-4.206485748291016
]
},
{
"children":[
4
],
"name":"Tree_base",
"rotation":[
0,
0.6325938105583191,
0,
0.7744837403297424
],
"scale":[
1.3634698390960693,
1.3634698390960693,
1.3634698390960693
],
"translation":[
-39.16503143310547,
2.9802322387695312e-06,
-2.4829940795898438
]
}
],
"materials":[
{
"doubleSided":true,
"name":"Rock",
"pbrMetallicRoughness":{
"baseColorFactor":[
0.15000000596046448,
0.13770000636577606,
0.13500000536441803,
1
],
"metallicFactor":0,
"roughnessFactor":0.6000000238418579
}
},
{
"doubleSided":true,
"name":"Crown",
"pbrMetallicRoughness":{
"baseColorFactor":[
0.024059835821390152,
0.0522179938852787,
0.005230959504842758,
1
],
"metallicFactor":0,
"roughnessFactor":0.5
}
},
{
"doubleSided":true,
"name":"Trunk",
"pbrMetallicRoughness":{
"baseColorFactor":[
0.06680663675069809,
0.02512774057686329,
0.0073633380234241486,
1
],
"metallicFactor":0,
"roughnessFactor":0.5
}
}
],
"meshes":[
{
"name":"Plane",
"primitives":[
{
"attributes":{
"POSITION":0,
"NORMAL":1,
"TEXCOORD_0":2
},
"indices":3
}
]
},
{
"name":"Cylinder",
"primitives":[
{
"attributes":{
"POSITION":4,
"NORMAL":5,
"TEXCOORD_0":6
},
"indices":7
}
]
},
{
"name":"Plane.001",
"primitives":[
{
"attributes":{
"POSITION":8,
"NORMAL":9,
"TEXCOORD_0":10
},
"indices":11
}
]
},
{
"name":"Cube",
"primitives":[
{
"attributes":{
"POSITION":12,
"NORMAL":13,
"TEXCOORD_0":14
},
"indices":15,
"material":0
}
]
},
{
"name":"Crown",
"primitives":[
{
"attributes":{
"POSITION":16,
"NORMAL":17,
"TEXCOORD_0":18
},
"indices":19,
"material":1
},
{
"attributes":{
"POSITION":20,
"NORMAL":21,
"TEXCOORD_0":22
},
"indices":23,
"material":2
}
]
}
],
"accessors":[
{
"bufferView":0,
"componentType":5126,
"count":7704,
"max":[
1.2262524366378784,
0.38807323575019836,
1.158493161201477
],
"min":[
-1.0372920036315918,
-0.07897517830133438,
-1.0087276697158813
],
"type":"VEC3"
},
{
"bufferView":1,
"componentType":5126,
"count":7704,
"type":"VEC3"
},
{
"bufferView":2,
"componentType":5126,
"count":7704,
"type":"VEC2"
},
{
"bufferView":3,
"componentType":5123,
"count":11616,
"type":"SCALAR"
},
{
"bufferView":4,
"componentType":5126,
"count":12045,
"max":[
7.998956203460693,
21.561050415039062,
9.993548393249512
],
"min":[
-10.96738052368164,
-1,
-13.264572143554688
],
"type":"VEC3"
},
{
"bufferView":5,
"componentType":5126,
"count":12045,
"type":"VEC3"
},
{
"bufferView":6,
"componentType":5126,
"count":12045,
"type":"VEC2"
},
{
"bufferView":7,
"componentType":5123,
"count":27156,
"type":"SCALAR"
},
{
"bufferView":8,
"componentType":5126,
"count":4,
"max":[
1,
0,
1
],
"min":[
-1,
0,
-1
],
"type":"VEC3"
},
{
"bufferView":9,
"componentType":5126,
"count":4,
"type":"VEC3"
},
{
"bufferView":10,
"componentType":5126,
"count":4,
"type":"VEC2"
},
{
"bufferView":11,
"componentType":5123,
"count":6,
"type":"SCALAR"
},
{
"bufferView":12,
"componentType":5126,
"count":600,
"max":[
16.63277244567871,
9.928628921508789,
37.12010192871094
],
"min":[
-77.68033599853516,
-36.17753219604492,
-21.302377700805664
],
"type":"VEC3"
},
{
"bufferView":13,
"componentType":5126,
"count":600,
"type":"VEC3"
},
{
"bufferView":14,
"componentType":5126,
"count":600,
"type":"VEC2"
},
{
"bufferView":15,
"componentType":5123,
"count":900,
"type":"SCALAR"
},
{
"bufferView":16,
"componentType":5126,
"count":51612,
"max":[
87.91860961914062,
30.172523498535156,
108.19650268554688
],
"min":[
-78.4907455444336,
-5.493343353271484,
-38.057884216308594
],
"type":"VEC3"
},
{
"bufferView":17,
"componentType":5126,
"count":51612,
"type":"VEC3"
},
{
"bufferView":18,
"componentType":5126,
"count":51612,
"type":"VEC2"
},
{
"bufferView":19,
"componentType":5123,
"count":51612,
"type":"SCALAR"
},
{
"bufferView":20,
"componentType":5126,
"count":21284,
"max":[
83.76570129394531,
25.818450927734375,
105.94522094726562
],
"min":[
-77.19813537597656,
-9.52511978149414,
-34.541839599609375
],
"type":"VEC3"
},
{
"bufferView":21,
"componentType":5126,
"count":21284,
"type":"VEC3"
},
{
"bufferView":22,
"componentType":5126,
"count":21284,
"type":"VEC2"
},
{
"bufferView":23,
"componentType":5123,
"count":32436,
"type":"SCALAR"
}
],
"bufferViews":[
{
"buffer":0,
"byteLength":92448,
"byteOffset":0,
"target":34962
},
{
"buffer":0,
"byteLength":92448,
"byteOffset":92448,
"target":34962
},
{
"buffer":0,
"byteLength":61632,
"byteOffset":184896,
"target":34962
},
{
"buffer":0,
"byteLength":23232,
"byteOffset":246528,
"target":34963
},
{
"buffer":0,
"byteLength":144540,
"byteOffset":269760,
"target":34962
},
{
"buffer":0,
"byteLength":144540,
"byteOffset":414300,
"target":34962
},
{
"buffer":0,
"byteLength":96360,
"byteOffset":558840,
"target":34962
},
{
"buffer":0,
"byteLength":54312,
"byteOffset":655200,
"target":34963
},
{
"buffer":0,
"byteLength":48,
"byteOffset":709512,
"target":34962
},
{
"buffer":0,
"byteLength":48,
"byteOffset":709560,
"target":34962
},
{
"buffer":0,
"byteLength":32,
"byteOffset":709608,
"target":34962
},
{
"buffer":0,
"byteLength":12,
"byteOffset":709640,
"target":34963
},
{
"buffer":0,
"byteLength":7200,
"byteOffset":709652,
"target":34962
},
{
"buffer":0,
"byteLength":7200,
"byteOffset":716852,
"target":34962
},
{
"buffer":0,
"byteLength":4800,
"byteOffset":724052,
"target":34962
},
{
"buffer":0,
"byteLength":1800,
"byteOffset":728852,
"target":34963
},
{
"buffer":0,
"byteLength":619344,
"byteOffset":730652,
"target":34962
},
{
"buffer":0,
"byteLength":619344,
"byteOffset":1349996,
"target":34962
},
{
"buffer":0,
"byteLength":412896,
"byteOffset":1969340,
"target":34962
},
{
"buffer":0,
"byteLength":103224,
"byteOffset":2382236,
"target":34963
},
{
"buffer":0,
"byteLength":255408,
"byteOffset":2485460,
"target":34962
},
{
"buffer":0,
"byteLength":255408,
"byteOffset":2740868,
"target":34962
},
{
"buffer":0,
"byteLength":170272,
"byteOffset":2996276,
"target":34962
},
{
"buffer":0,
"byteLength":64872,
"byteOffset":3166548,
"target":34963
}
],
"buffers":[
{
"byteLength":3231420,
"uri":"forest-join.bin"
}
]
}
