{
	"asset":{
		"generator":"Khronos glTF Blender I/O v5.1.19",
		"version":"2.0"
	},
	"scene":0,
	"scenes":[
		{
			"name":"Scene",
			"nodes":[
				0,
				1,
				2,
				3,
				5
			]
		}
	],
	"nodes":[
		{
			"mesh":0,
			"name":"Landscape",
			"scale":[
				100,
				100,
				100
			]
		},
		{
			"mesh":1,
			"name":"Distinct Tree",
			"translation":[
				0,
				1,
				0
			]
		},
		{
			"mesh":2,
			"name":"Water",
			"scale":[
				30.242414474487305,
				30.242414474487305,
				30.242414474487305
			],
			"translation":[
				26.2393741607666,
				-0.47424206137657166,
				19.297958374023438
			]
		},
		{
			"mesh":3,
			"name":"Procedural Low Poly Rock",
			"rotation":[
				0.20959851145744324,
				-0.9777875542640686,
				0,
				6.806632768530108e-08
			],
			"translation":[
				-11.073649406433105,
				0.6677118539810181,
				32.224178314208984
			]
		},
		{
			"mesh":4,
			"name":"Crown",
			"translation":[
				-0.3356971740722656,
				9.525118827819824,
				-4.206485748291016
			]
		},
		{
			"children":[
				4
			],
			"name":"Tree_base",
			"rotation":[
				0,
				0.6325938105583191,
				0,
				0.7744837403297424
			],
			"scale":[
				1.3634698390960693,
				1.3634698390960693,
				1.3634698390960693
			],
			"translation":[
				-39.16503143310547,
				2.9802322387695312e-06,
				-2.4829940795898438
			]
		}
	],
	"materials":[
		{
			"doubleSided":true,
			"name":"Rock",
			"pbrMetallicRoughness":{
				"baseColorFactor":[
					0.15000000596046448,
					0.13770000636577606,
					0.13500000536441803,
					1
				],
				"metallicFactor":0,
				"roughnessFactor":0.6000000238418579
			}
		},
		{
			"doubleSided":true,
			"name":"Crown",
			"pbrMetallicRoughness":{
				"baseColorFactor":[
					0.024059835821390152,
					0.0522179938852787,
					0.005230959504842758,
					1
				],
				"metallicFactor":0,
				"roughnessFactor":0.5
			}
		},
		{
			"doubleSided":true,
			"name":"Trunk",
			"pbrMetallicRoughness":{
				"baseColorFactor":[
					0.06680663675069809,
					0.02512774057686329,
					0.0073633380234241486,
					1
				],
				"metallicFactor":0,
				"roughnessFactor":0.5
			}
		}
	],
	"meshes":[
		{
			"name":"Mesh",
			"primitives":[
				{
					"attributes":{
						"POSITION":0,
						"NORMAL":1,
						"TEXCOORD_0":2
					},
					"indices":3
				}
			]
		},
		{
			"name":"Cylinder",
			"primitives":[
				{
					"attributes":{
						"POSITION":4,
						"NORMAL":5,
						"TEXCOORD_0":6
					},
					"indices":7
				}
			]
		},
		{
			"name":"Plane.001",
			"primitives":[
				{
					"attributes":{
						"POSITION":8,
						"NORMAL":9,
						"TEXCOORD_0":10
					},
					"indices":11
				}
			]
		},
		{
			"name":"Cube",
			"primitives":[
				{
					"attributes":{
						"POSITION":12,
						"NORMAL":13
					},
					"indices":14,
					"material":0
				}
			]
		},
		{
			"name":"Crown",
			"primitives":[
				{
					"attributes":{
						"POSITION":15,
						"NORMAL":16,
						"TEXCOORD_0":17
					},
					"indices":18,
					"material":1
				},
				{
					"attributes":{
						"POSITION":19,
						"NORMAL":20,
						"TEXCOORD_0":21
					},
					"indices":22,
					"material":2
				}
			]
		}
	],
	"accessors":[
		{
			"bufferView":0,
			"componentType":5126,
			"count":485597,
			"max":[
				1.226252555847168,
				0.38807329535484314,
				1.1584932804107666
			],
			"min":[
				-1.0372921228408813,
				-0.07897518575191498,
				-1.008727788925171
			],
			"type":"VEC3"
		},
		{
			"bufferView":1,
			"componentType":5126,
			"count":485597,
			"type":"VEC3"
		},
		{
			"bufferView":2,
			"componentType":5126,
			"count":485597,
			"type":"VEC2"
		},
		{
			"bufferView":3,
			"componentType":5125,
			"count":743424,
			"type":"SCALAR"
		},
		{
			"bufferView":4,
			"componentType":5126,
			"count":17600,
			"max":[
				7.831384181976318,
				21.456298828125,
				9.799078941345215
			],
			"min":[
				-10.768872261047363,
				-0.6342668533325195,
				-13.038225173950195
			],
			"type":"VEC3"
		},
		{
			"bufferView":5,
			"componentType":5126,
			"count":17600,
			"type":"VEC3"
		},
		{
			"bufferView":6,
			"componentType":5126,
			"count":17600,
			"type":"VEC2"
		},
		{
			"bufferView":7,
			"componentType":5123,
			"count":27156,
			"type":"SCALAR"
		},
		{
			"bufferView":8,
			"componentType":5126,
			"count":4,
			"max":[
				1,
				0,
				1
			],
			"min":[
				-1,
				0,
				-1
			],
			"type":"VEC3"
		},
		{
			"bufferView":9,
			"componentType":5126,
			"count":4,
			"type":"VEC3"
		},
		{
			"bufferView":10,
			"componentType":5126,
			"count":4,
			"type":"VEC2"
		},
		{
			"bufferView":11,
			"componentType":5123,
			"count":6,
			"type":"SCALAR"
		},
		{
			"bufferView":12,
			"componentType":5126,
			"count":482,
			"max":[
				1.0151543617248535,
				0.6612036228179932,
				0.8478417992591858
			],
			"min":[
				-1.073074221611023,
				-0.758550763130188,
				-0.8228907585144043
			],
			"type":"VEC3"
		},
		{
			"bufferView":13,
			"componentType":5126,
			"count":482,
			"type":"VEC3"
		},
		{
			"bufferView":14,
			"componentType":5123,
			"count":888,
			"type":"SCALAR"
		},
		{
			"bufferView":15,
			"componentType":5126,
			"count":51612,
			"max":[
				87.91860961914062,
				30.172523498535156,
				108.19650268554688
			],
			"min":[
				-78.4907455444336,
				-5.493343353271484,
				-38.057884216308594
			],
			"type":"VEC3"
		},
		{
			"bufferView":16,
			"componentType":5126,
			"count":51612,
			"type":"VEC3"
		},
		{
			"bufferView":17,
			"componentType":5126,
			"count":51612,
			"type":"VEC2"
		},
		{
			"bufferView":18,
			"componentType":5123,
			"count":51612,
			"type":"SCALAR"
		},
		{
			"bufferView":19,
			"componentType":5126,
			"count":21284,
			"max":[
				83.76570129394531,
				25.818450927734375,
				105.94522094726562
			],
			"min":[
				-77.19813537597656,
				-9.52511978149414,
				-34.541839599609375
			],
			"type":"VEC3"
		},
		{
			"bufferView":20,
			"componentType":5126,
			"count":21284,
			"type":"VEC3"
		},
		{
			"bufferView":21,
			"componentType":5126,
			"count":21284,
			"type":"VEC2"
		},
		{
			"bufferView":22,
			"componentType":5123,
			"count":32436,
			"type":"SCALAR"
		}
	],
	"bufferViews":[
		{
			"buffer":0,
			"byteLength":5827164,
			"byteOffset":0,
			"target":34962
		},
		{
			"buffer":0,
			"byteLength":5827164,
			"byteOffset":5827164,
			"target":34962
		},
		{
			"buffer":0,
			"byteLength":3884776,
			"byteOffset":11654328,
			"target":34962
		},
		{
			"buffer":0,
			"byteLength":2973696,
			"byteOffset":15539104,
			"target":34963
		},
		{
			"buffer":0,
			"byteLength":211200,
			"byteOffset":18512800,
			"target":34962
		},
		{
			"buffer":0,
			"byteLength":211200,
			"byteOffset":18724000,
			"target":34962
		},
		{
			"buffer":0,
			"byteLength":140800,
			"byteOffset":18935200,
			"target":34962
		},
		{
			"buffer":0,
			"byteLength":54312,
			"byteOffset":19076000,
			"target":34963
		},
		{
			"buffer":0,
			"byteLength":48,
			"byteOffset":19130312,
			"target":34962
		},
		{
			"buffer":0,
			"byteLength":48,
			"byteOffset":19130360,
			"target":34962
		},
		{
			"buffer":0,
			"byteLength":32,
			"byteOffset":19130408,
			"target":34962
		},
		{
			"buffer":0,
			"byteLength":12,
			"byteOffset":19130440,
			"target":34963
		},
		{
			"buffer":0,
			"byteLength":5784,
			"byteOffset":19130452,
			"target":34962
		},
		{
			"buffer":0,
			"byteLength":5784,
			"byteOffset":19136236,
			"target":34962
		},
		{
			"buffer":0,
			"byteLength":1776,
			"byteOffset":19142020,
			"target":34963
		},
		{
			"buffer":0,
			"byteLength":619344,
			"byteOffset":19143796,
			"target":34962
		},
		{
			"buffer":0,
			"byteLength":619344,
			"byteOffset":19763140,
			"target":34962
		},
		{
			"buffer":0,
			"byteLength":412896,
			"byteOffset":20382484,
			"target":34962
		},
		{
			"buffer":0,
			"byteLength":103224,
			"byteOffset":20795380,
			"target":34963
		},
		{
			"buffer":0,
			"byteLength":255408,
			"byteOffset":20898604,
			"target":34962
		},
		{
			"buffer":0,
			"byteLength":255408,
			"byteOffset":21154012,
			"target":34962
		},
		{
			"buffer":0,
			"byteLength":170272,
			"byteOffset":21409420,
			"target":34962
		},
		{
			"buffer":0,
			"byteLength":64872,
			"byteOffset":21579692,
			"target":34963
		}
	],
	"buffers":[
		{
			"byteLength":21644564,
			"uri":"forest-join2.bin"
		}
	]
}
